<?xml version="1.0" encoding="UTF-8" standalone="no"?>
<!-- Generator: IcoMoon.io -->

<svg
   xmlns:dc="http://purl.org/dc/elements/1.1/"
   xmlns:cc="http://creativecommons.org/ns#"
   xmlns:rdf="http://www.w3.org/1999/02/22-rdf-syntax-ns#"
   xmlns:svg="http://www.w3.org/2000/svg"
   xmlns="http://www.w3.org/2000/svg"
   xmlns:sodipodi="http://sodipodi.sourceforge.net/DTD/sodipodi-0.dtd"
   xmlns:inkscape="http://www.inkscape.org/namespaces/inkscape"
   width="512"
   height="512"
   viewBox="0 0 512 512"
   fill="#000000"
   id="svg2"
   version="1.1"
   inkscape:version="0.48.2 r9819"
   sodipodi:docname="table2.svg">
  <metadata
     id="metadata73">
    <rdf:RDF>
      <cc:Work
         rdf:about="">
        <dc:format>image/svg+xml</dc:format>
        <dc:type
           rdf:resource="http://purl.org/dc/dcmitype/StillImage" />
      </cc:Work>
    </rdf:RDF>
  </metadata>
  <defs
     id="defs71" />
  <sodipodi:namedview
     pagecolor="#ffffff"
     bordercolor="#666666"
     borderopacity="1"
     objecttolerance="10"
     gridtolerance="10"
     guidetolerance="10"
     inkscape:pageopacity="0"
     inkscape:pageshadow="2"
     inkscape:window-width="721"
     inkscape:window-height="480"
     id="namedview69"
     showgrid="false"
     inkscape:zoom="0.4609375"
     inkscape:cx="256"
     inkscape:cy="256"
     inkscape:window-x="727"
     inkscape:window-y="147"
     inkscape:window-maximized="0"
     inkscape:current-layer="svg2" />
  <g
     class="svgGrid"
     id="svgGrid">
    <line
       stroke-width="1"
       stroke="#B35047"
       x1="32"
       x2="32"
       y1="0"
       y2="512"
       id="line5" />
    <line
       stroke-width="1"
       stroke="#B35047"
       x1="64"
       x2="64"
       y1="0"
       y2="512"
       id="line7" />
    <line
       stroke-width="1"
       stroke="#B35047"
       x1="96"
       x2="96"
       y1="0"
       y2="512"
       id="line9" />
    <line
       stroke-width="1"
       stroke="#B35047"
       x1="128"
       x2="128"
       y1="0"
       y2="512"
       id="line11" />
    <line
       stroke-width="1"
       stroke="#B35047"
       x1="160"
       x2="160"
       y1="0"
       y2="512"
       id="line13" />
    <line
       stroke-width="1"
       stroke="#B35047"
       x1="192"
       x2="192"
       y1="0"
       y2="512"
       id="line15" />
    <line
       stroke-width="1"
       stroke="#B35047"
       x1="224"
       x2="224"
       y1="0"
       y2="512"
       id="line17" />
    <line
       stroke-width="1"
       stroke="#B35047"
       x1="256"
       x2="256"
       y1="0"
       y2="512"
       id="line19" />
    <line
       stroke-width="1"
       stroke="#B35047"
       x1="288"
       x2="288"
       y1="0"
       y2="512"
       id="line21" />
    <line
       stroke-width="1"
       stroke="#B35047"
       x1="320"
       x2="320"
       y1="0"
       y2="512"
       id="line23" />
    <line
       stroke-width="1"
       stroke="#B35047"
       x1="352"
       x2="352"
       y1="0"
       y2="512"
       id="line25" />
    <line
       stroke-width="1"
       stroke="#B35047"
       x1="384"
       x2="384"
       y1="0"
       y2="512"
       id="line27" />
    <line
       stroke-width="1"
       stroke="#B35047"
       x1="416"
       x2="416"
       y1="0"
       y2="512"
       id="line29" />
    <line
       stroke-width="1"
       stroke="#B35047"
       x1="448"
       x2="448"
       y1="0"
       y2="512"
       id="line31" />
    <line
       stroke-width="1"
       stroke="#B35047"
       x1="480"
       x2="480"
       y1="0"
       y2="512"
       id="line33" />
    <line
       stroke-width="1"
       stroke="#B35047"
       x1="0"
       x2="512"
       y1="32"
       y2="32"
       id="line35" />
    <line
       stroke-width="1"
       stroke="#B35047"
       x1="0"
       x2="512"
       y1="64"
       y2="64"
       id="line37" />
    <line
       stroke-width="1"
       stroke="#B35047"
       x1="0"
       x2="512"
       y1="96"
       y2="96"
       id="line39" />
    <line
       stroke-width="1"
       stroke="#B35047"
       x1="0"
       x2="512"
       y1="128"
       y2="128"
       id="line41" />
    <line
       stroke-width="1"
       stroke="#B35047"
       x1="0"
       x2="512"
       y1="160"
       y2="160"
       id="line43" />
    <line
       stroke-width="1"
       stroke="#B35047"
       x1="0"
       x2="512"
       y1="192"
       y2="192"
       id="line45" />
    <line
       stroke-width="1"
       stroke="#B35047"
       x1="0"
       x2="512"
       y1="224"
       y2="224"
       id="line47" />
    <line
       stroke-width="1"
       stroke="#B35047"
       x1="0"
       x2="512"
       y1="256"
       y2="256"
       id="line49" />
    <line
       stroke-width="1"
       stroke="#B35047"
       x1="0"
       x2="512"
       y1="288"
       y2="288"
       id="line51" />
    <line
       stroke-width="1"
       stroke="#B35047"
       x1="0"
       x2="512"
       y1="320"
       y2="320"
       id="line53" />
    <line
       stroke-width="1"
       stroke="#B35047"
       x1="0"
       x2="512"
       y1="352"
       y2="352"
       id="line55" />
    <line
       stroke-width="1"
       stroke="#B35047"
       x1="0"
       x2="512"
       y1="384"
       y2="384"
       id="line57" />
    <line
       stroke-width="1"
       stroke="#B35047"
       x1="0"
       x2="512"
       y1="416"
       y2="416"
       id="line59" />
    <line
       stroke-width="1"
       stroke="#B35047"
       x1="0"
       x2="512"
       y1="448"
       y2="448"
       id="line61" />
    <line
       stroke-width="1"
       stroke="#B35047"
       x1="0"
       x2="512"
       y1="480"
       y2="480"
       id="line63" />
    <rect
       x="0"
       y="0"
       width="512"
       height="512"
       fill="none"
       stroke-width="1"
       stroke="#B35047"
       id="rect65" />
  </g>
  <path
     d="M0.00,32.00l0.00,448.00 l 512.00,0.00 L 512.00,32.00 L0.00,32.00 z M 192.00,320.00l0.00-96.00 l 128.00,0.00 l0.00,96.00 L 192.00,320.00 z M 320.00,352.00l0.00,96.00 L 192.00,448.00 l0.00-96.00 L 320.00,352.00 z M 320.00,96.00l0.00,96.00 L 192.00,192.00 L 192.00,96.00 L 320.00,96.00 z M 160.00,96.00l0.00,96.00 L 32.00,192.00 L 32.00,96.00 L 160.00,96.00 z M 32.00,224.00l 128.00,0.00 l0.00,96.00 L 32.00,320.00 L 32.00,224.00 z M 352.00,224.00l 128.00,0.00 l0.00,96.00 L 352.00,320.00 L 352.00,224.00 z M 352.00,192.00L 352.00,96.00 l 128.00,0.00 l0.00,96.00 L 352.00,192.00 z M 32.00,352.00l 128.00,0.00 l0.00,96.00 L 32.00,448.00 L 32.00,352.00 z M 352.00,448.00l0.00-96.00 l 128.00,0.00 l0.00,96.00 L 352.00,448.00 z"
     id="path67"
     style="fill:#aaaaaa;fill-opacity:1" />
</svg>
