<?xml version="1.0" encoding="UTF-8" standalone="no"?>
<!-- Generator: Adobe Illustrator 16.0.0, SVG Export Plug-In . SVG Version: 6.00 Build 0)  -->

<svg
   xmlns:dc="http://purl.org/dc/elements/1.1/"
   xmlns:cc="http://creativecommons.org/ns#"
   xmlns:rdf="http://www.w3.org/1999/02/22-rdf-syntax-ns#"
   xmlns:svg="http://www.w3.org/2000/svg"
   xmlns="http://www.w3.org/2000/svg"
   xmlns:sodipodi="http://sodipodi.sourceforge.net/DTD/sodipodi-0.dtd"
   xmlns:inkscape="http://www.inkscape.org/namespaces/inkscape"
   version="1.1"
   id="Layer_1"
   x="0px"
   y="0px"
   width="512px"
   height="512px"
   viewBox="0 0 512 512"
   enable-background="new 0 0 512 512"
   xml:space="preserve"
   inkscape:version="0.48.2 r9819"
   sodipodi:docname="undo-7.svg"><metadata
   id="metadata21"><rdf:RDF><cc:Work
       rdf:about=""><dc:format>image/svg+xml</dc:format><dc:type
         rdf:resource="http://purl.org/dc/dcmitype/StillImage" /><dc:title></dc:title></cc:Work></rdf:RDF></metadata><defs
   id="defs19" /><sodipodi:namedview
   pagecolor="#ffffff"
   bordercolor="#666666"
   borderopacity="1"
   objecttolerance="10"
   gridtolerance="10"
   guidetolerance="10"
   inkscape:pageopacity="0"
   inkscape:pageshadow="2"
   inkscape:window-width="1920"
   inkscape:window-height="1152"
   id="namedview17"
   showgrid="false"
   inkscape:zoom="0.4609375"
   inkscape:cx="-128"
   inkscape:cy="256"
   inkscape:window-x="0"
   inkscape:window-y="0"
   inkscape:window-maximized="1"
   inkscape:current-layer="Layer_1" />
<g
   id="g3"
   style="fill:#aaaaaa;fill-opacity:1">
	<path
   d="M174.906,443.422c22.641,10.875,47.469,17.813,73.719,19.813v-64.813c-14.594-1.625-28.672-4.906-41.625-10.594   L174.906,443.422z"
   id="path5"
   style="fill:#aaaaaa;fill-opacity:1" />
	<path
   d="M407.016,240.047h64.813c-8.25-107.219-97.938-192-207.203-192c-64.281,0-124.719,30.094-163.813,79.969L41.031,93.453   l-0.125,197.844l171.391-98.813l-55.094-31.875c27.063-30.313,66-48.563,107.422-48.563   C338.578,112.047,398.953,168.234,407.016,240.047z"
   id="path7"
   style="fill:#aaaaaa;fill-opacity:1" />
	<path
   d="M149.125,341.203l-55.984,32.313c14.531,21.156,32.859,39.469,54.016,54.031l32.313-56   C167.891,362.984,157.688,352.766,149.125,341.203z"
   id="path9"
   style="fill:#aaaaaa;fill-opacity:1" />
	<path
   d="M280.641,398.422v64.813c26.25-2,51.063-8.938,73.688-19.813l-32.063-55.594   C309.266,393.516,295.203,396.797,280.641,398.422z"
   id="path11"
   style="fill:#aaaaaa;fill-opacity:1" />
	<path
   d="M349.766,371.547l32.313,56c21.188-14.563,39.5-32.875,54.063-54.031l-56-32.313   C371.578,352.766,361.391,362.984,349.766,371.547z"
   id="path13"
   style="fill:#aaaaaa;fill-opacity:1" />
	<path
   d="M396.453,313.641l55.563,32.094c10.875-22.625,17.813-47.438,19.813-73.688h-64.813   C405.391,286.641,402.078,300.703,396.453,313.641z"
   id="path15"
   style="fill:#aaaaaa;fill-opacity:1" />
</g>
</svg>